<svg width="18" height="21" viewBox="0 0 18 21" fill="none" xmlns="http://www.w3.org/2000/svg">
<path d="M6.71 5.70994L8 4.40994V15.9999C8 16.2652 8.10536 16.5195 8.29289 16.707C8.48043 16.8946 8.73478 16.9999 9 16.9999C9.26522 16.9999 9.51957 16.8946 9.70711 16.707C9.89464 16.5195 10 16.2652 10 15.9999V4.40994L11.29 5.70994C11.383 5.80367 11.4936 5.87806 11.6154 5.92883C11.7373 5.9796 11.868 6.00574 12 6.00574C12.132 6.00574 12.2627 5.9796 12.3846 5.92883C12.5064 5.87806 12.617 5.80367 12.71 5.70994C12.8037 5.61698 12.8781 5.50638 12.9289 5.38452C12.9797 5.26266 13.0058 5.13195 13.0058 4.99994C13.0058 4.86793 12.9797 4.73722 12.9289 4.61536C12.8781 4.4935 12.8037 4.3829 12.71 4.28994L9.71 1.28994C9.61704 1.19621 9.50644 1.12182 9.38458 1.07105C9.26272 1.02028 9.13201 0.994141 9 0.994141C8.86799 0.994141 8.73728 1.02028 8.61542 1.07105C8.49356 1.12182 8.38296 1.19621 8.29 1.28994L5.29 4.28994C5.1017 4.47824 4.99591 4.73364 4.99591 4.99994C4.99591 5.26624 5.1017 5.52164 5.29 5.70994C5.4783 5.89824 5.7337 6.00403 6 6.00403C6.2663 6.00403 6.5217 5.89824 6.71 5.70994ZM15 7.99994H13C12.7348 7.99994 12.4804 8.1053 12.2929 8.29283C12.1054 8.48037 12 8.73472 12 8.99994C12 9.26516 12.1054 9.51951 12.2929 9.70705C12.4804 9.89458 12.7348 9.99994 13 9.99994H15C15.2652 9.99994 15.5196 10.1053 15.7071 10.2928C15.8946 10.4804 16 10.7347 16 10.9999V17.9999C16 18.2652 15.8946 18.5195 15.7071 18.707C15.5196 18.8946 15.2652 18.9999 15 18.9999H3C2.73478 18.9999 2.48043 18.8946 2.29289 18.707C2.10536 18.5195 2 18.2652 2 17.9999V10.9999C2 10.7347 2.10536 10.4804 2.29289 10.2928C2.48043 10.1053 2.73478 9.99994 3 9.99994H5C5.26522 9.99994 5.51957 9.89458 5.70711 9.70705C5.89464 9.51951 6 9.26516 6 8.99994C6 8.73472 5.89464 8.48037 5.70711 8.29283C5.51957 8.1053 5.26522 7.99994 5 7.99994H3C2.20435 7.99994 1.44129 8.31601 0.87868 8.87862C0.316071 9.44123 0 10.2043 0 10.9999V17.9999C0 18.7956 0.316071 19.5587 0.87868 20.1213C1.44129 20.6839 2.20435 20.9999 3 20.9999H15C15.7956 20.9999 16.5587 20.6839 17.1213 20.1213C17.6839 19.5587 18 18.7956 18 17.9999V10.9999C18 10.2043 17.6839 9.44123 17.1213 8.87862C16.5587 8.31601 15.7956 7.99994 15 7.99994Z" fill="black"/>
</svg>
